<svg width="32" height="32" viewBox="0 0 32 32" fill="none" xmlns="http://www.w3.org/2000/svg">
<path d="M16 8.72727C11.9855 8.72727 8.72727 11.9855 8.72727 16C8.72727 20.0145 11.9855 23.2727 16 23.2727C20.0145 23.2727 23.2727 20.0145 23.2727 16C23.2727 11.9855 20.0145 8.72727 16 8.72727ZM1.45455 17.4545H4.36364C5.16364 17.4545 5.81818 16.8 5.81818 16C5.81818 15.2 5.16364 14.5455 4.36364 14.5455H1.45455C0.654545 14.5455 0 15.2 0 16C0 16.8 0.654545 17.4545 1.45455 17.4545ZM27.6364 17.4545H30.5455C31.3455 17.4545 32 16.8 32 16C32 15.2 31.3455 14.5455 30.5455 14.5455H27.6364C26.8364 14.5455 26.1818 15.2 26.1818 16C26.1818 16.8 26.8364 17.4545 27.6364 17.4545ZM14.5455 1.45455V4.36364C14.5455 5.16364 15.2 5.81818 16 5.81818C16.8 5.81818 17.4545 5.16364 17.4545 4.36364V1.45455C17.4545 0.654545 16.8 0 16 0C15.2 0 14.5455 0.654545 14.5455 1.45455ZM14.5455 27.6364V30.5455C14.5455 31.3455 15.2 32 16 32C16.8 32 17.4545 31.3455 17.4545 30.5455V27.6364C17.4545 26.8364 16.8 26.1818 16 26.1818C15.2 26.1818 14.5455 26.8364 14.5455 27.6364ZM7.25818 5.20727C7.12362 5.07243 6.96378 4.96545 6.78782 4.89246C6.61186 4.81947 6.42323 4.7819 6.23273 4.7819C6.04223 4.7819 5.8536 4.81947 5.67764 4.89246C5.50168 4.96545 5.34184 5.07243 5.20727 5.20727C5.07243 5.34184 4.96545 5.50168 4.89246 5.67764C4.81947 5.8536 4.7819 6.04223 4.7819 6.23273C4.7819 6.42323 4.81947 6.61186 4.89246 6.78782C4.96545 6.96378 5.07243 7.12362 5.20727 7.25818L6.74909 8.8C7.31636 9.36727 8.24727 9.36727 8.8 8.8C9.35273 8.23273 9.36727 7.30182 8.8 6.74909L7.25818 5.20727ZM25.2509 23.2C25.1163 23.0652 24.9565 22.9582 24.7805 22.8852C24.6046 22.8122 24.416 22.7746 24.2255 22.7746C24.035 22.7746 23.8463 22.8122 23.6704 22.8852C23.4944 22.9582 23.3346 23.0652 23.2 23.2C23.0652 23.3346 22.9582 23.4944 22.8852 23.6704C22.8122 23.8463 22.7746 24.035 22.7746 24.2255C22.7746 24.416 22.8122 24.6046 22.8852 24.7805C22.9582 24.9565 23.0652 25.1163 23.2 25.2509L24.7418 26.7927C25.3091 27.36 26.24 27.36 26.7927 26.7927C26.9276 26.6582 27.0345 26.4983 27.1075 26.3224C27.1805 26.1464 27.2181 25.9578 27.2181 25.7673C27.2181 25.5768 27.1805 25.3881 27.1075 25.2122C27.0345 25.0362 26.9276 24.8764 26.7927 24.7418L25.2509 23.2ZM26.7927 7.25818C26.9276 7.12362 27.0345 6.96378 27.1075 6.78782C27.1805 6.61186 27.2181 6.42323 27.2181 6.23273C27.2181 6.04223 27.1805 5.8536 27.1075 5.67764C27.0345 5.50168 26.9276 5.34184 26.7927 5.20727C26.6582 5.07243 26.4983 4.96545 26.3224 4.89246C26.1464 4.81947 25.9578 4.7819 25.7673 4.7819C25.5768 4.7819 25.3881 4.81947 25.2122 4.89246C25.0362 4.96545 24.8764 5.07243 24.7418 5.20727L23.2 6.74909C22.6327 7.31636 22.6327 8.24727 23.2 8.8C23.7673 9.35273 24.6982 9.36727 25.2509 8.8L26.7927 7.25818ZM8.8 25.2509C8.93484 25.1163 9.04182 24.9565 9.11481 24.7805C9.1878 24.6046 9.22537 24.416 9.22537 24.2255C9.22537 24.035 9.1878 23.8463 9.11481 23.6704C9.04182 23.4944 8.93484 23.3346 8.8 23.2C8.66544 23.0652 8.5056 22.9582 8.32964 22.8852C8.15367 22.8122 7.96504 22.7746 7.77455 22.7746C7.58405 22.7746 7.39542 22.8122 7.21946 22.8852C7.04349 22.9582 6.88366 23.0652 6.74909 23.2L5.20727 24.7418C4.64 25.3091 4.64 26.24 5.20727 26.7927C5.77455 27.3455 6.70545 27.36 7.25818 26.7927L8.8 25.2509V25.2509Z" fill="black"/>
</svg>
