<svg width="32" height="32" viewBox="0 0 32 32" fill="none" xmlns="http://www.w3.org/2000/svg">
<path d="M16 12C18.2 12 20 13.8 20 16C20 18.2 18.2 20 16 20C13.8 20 12 18.2 12 16C12 13.8 13.8 12 16 12ZM16 9.33334C12.32 9.33334 9.33331 12.32 9.33331 16C9.33331 19.68 12.32 22.6667 16 22.6667C19.68 22.6667 22.6666 19.68 22.6666 16C22.6666 12.32 19.68 9.33334 16 9.33334ZM2.66665 17.3333H5.33331C6.06665 17.3333 6.66665 16.7333 6.66665 16C6.66665 15.2667 6.06665 14.6667 5.33331 14.6667H2.66665C1.93331 14.6667 1.33331 15.2667 1.33331 16C1.33331 16.7333 1.93331 17.3333 2.66665 17.3333ZM26.6666 17.3333H29.3333C30.0666 17.3333 30.6666 16.7333 30.6666 16C30.6666 15.2667 30.0666 14.6667 29.3333 14.6667H26.6666C25.9333 14.6667 25.3333 15.2667 25.3333 16C25.3333 16.7333 25.9333 17.3333 26.6666 17.3333ZM14.6666 2.66668V5.33334C14.6666 6.06668 15.2666 6.66668 16 6.66668C16.7333 6.66668 17.3333 6.06668 17.3333 5.33334V2.66668C17.3333 1.93334 16.7333 1.33334 16 1.33334C15.2666 1.33334 14.6666 1.93334 14.6666 2.66668ZM14.6666 26.6667V29.3333C14.6666 30.0667 15.2666 30.6667 16 30.6667C16.7333 30.6667 17.3333 30.0667 17.3333 29.3333V26.6667C17.3333 25.9333 16.7333 25.3333 16 25.3333C15.2666 25.3333 14.6666 25.9333 14.6666 26.6667ZM7.98665 6.10668C7.86329 5.98307 7.71678 5.88501 7.55548 5.8181C7.39418 5.75119 7.22127 5.71675 7.04665 5.71675C6.87202 5.71675 6.69911 5.75119 6.53781 5.8181C6.37652 5.88501 6.23 5.98307 6.10665 6.10668C5.98304 6.23003 5.88498 6.37655 5.81807 6.53784C5.75116 6.69914 5.71672 6.87205 5.71672 7.04668C5.71672 7.2213 5.75116 7.39421 5.81807 7.55551C5.88498 7.71681 5.98304 7.86332 6.10665 7.98668L7.51998 9.40001C8.03998 9.92001 8.89331 9.92001 9.39998 9.40001C9.90665 8.88001 9.91998 8.02668 9.39998 7.52001L7.98665 6.10668ZM24.48 22.6C24.3566 22.4764 24.2101 22.3783 24.0488 22.3114C23.8875 22.2445 23.7146 22.2101 23.54 22.2101C23.3654 22.2101 23.1924 22.2445 23.0311 22.3114C22.8698 22.3783 22.7233 22.4764 22.6 22.6C22.4764 22.7234 22.3783 22.8699 22.3114 23.0312C22.2445 23.1925 22.2101 23.3654 22.2101 23.54C22.2101 23.7146 22.2445 23.8875 22.3114 24.0488C22.3783 24.2101 22.4764 24.3567 22.6 24.48L24.0133 25.8933C24.5333 26.4133 25.3866 26.4133 25.8933 25.8933C26.0169 25.77 26.115 25.6235 26.1819 25.4622C26.2488 25.3009 26.2832 25.128 26.2832 24.9533C26.2832 24.7787 26.2488 24.6058 26.1819 24.4445C26.115 24.2832 26.0169 24.1367 25.8933 24.0133L24.48 22.6ZM25.8933 7.98668C26.0169 7.86332 26.115 7.71681 26.1819 7.55551C26.2488 7.39421 26.2832 7.2213 26.2832 7.04668C26.2832 6.87205 26.2488 6.69914 26.1819 6.53784C26.115 6.37655 26.0169 6.23003 25.8933 6.10668C25.77 5.98307 25.6234 5.88501 25.4621 5.8181C25.3008 5.75119 25.1279 5.71675 24.9533 5.71675C24.7787 5.71675 24.6058 5.75119 24.4445 5.8181C24.2832 5.88501 24.1367 5.98307 24.0133 6.10668L22.6 7.52001C22.08 8.04001 22.08 8.89334 22.6 9.40001C23.12 9.90668 23.9733 9.92001 24.48 9.40001L25.8933 7.98668ZM9.39998 24.48C9.52358 24.3567 9.62165 24.2101 9.68856 24.0488C9.75546 23.8875 9.7899 23.7146 9.7899 23.54C9.7899 23.3654 9.75546 23.1925 9.68856 23.0312C9.62165 22.8699 9.52358 22.7234 9.39998 22.6C9.27663 22.4764 9.13011 22.3783 8.96881 22.3114C8.80751 22.2445 8.6346 22.2101 8.45998 22.2101C8.28535 22.2101 8.11244 22.2445 7.95115 22.3114C7.78985 22.3783 7.64333 22.4764 7.51998 22.6L6.10665 24.0133C5.58665 24.5333 5.58665 25.3867 6.10665 25.8933C6.62665 26.4 7.47998 26.4133 7.98665 25.8933L9.39998 24.48V24.48Z" fill="black"/>
</svg>
