<svg width="32" height="32" viewBox="0 0 32 32" fill="none" xmlns="http://www.w3.org/2000/svg">
<path fill-rule="evenodd" clip-rule="evenodd" d="M17.3334 6.27068C17.3334 3.79468 14.2534 2.65601 12.6414 4.53601L7.78669 10.2C7.66151 10.3464 7.5061 10.4639 7.33117 10.5444C7.15625 10.625 6.96594 10.6667 6.77335 10.6667H6.66669C5.60582 10.6667 4.58841 11.0881 3.83826 11.8383C3.08811 12.5884 2.66669 13.6058 2.66669 14.6667V17.3333C2.66669 18.3942 3.08811 19.4116 3.83826 20.1618C4.58841 20.9119 5.60582 21.3333 6.66669 21.3333H6.77335C6.96594 21.3333 7.15625 21.375 7.33117 21.4556C7.5061 21.5362 7.66151 21.6537 7.78669 21.8L8.73602 20.984L7.78535 21.7987L12.6414 27.4653C14.2534 29.3453 17.3334 28.2053 17.3334 25.7293V6.27068ZM21.724 12.3907C21.9741 12.1407 22.3131 12.0003 22.6667 12.0003C23.0202 12.0003 23.3593 12.1407 23.6094 12.3907L25.3334 14.1147L27.0574 12.3907C27.1803 12.2633 27.3275 12.1618 27.4901 12.0919C27.6528 12.022 27.8278 11.9852 28.0048 11.9837C28.1819 11.9821 28.3574 12.0159 28.5213 12.0829C28.6852 12.15 28.834 12.249 28.9592 12.3742C29.0844 12.4993 29.1834 12.6482 29.2505 12.8121C29.3175 12.9759 29.3512 13.1515 29.3497 13.3285C29.3482 13.5056 29.3114 13.6805 29.2415 13.8432C29.1716 14.0059 29.07 14.153 28.9427 14.276L27.2187 16L28.9427 17.724C29.1856 17.9755 29.32 18.3123 29.3169 18.6619C29.3139 19.0115 29.1737 19.3459 28.9264 19.5931C28.6792 19.8403 28.3448 19.9805 27.9952 19.9836C27.6456 19.9866 27.3088 19.8522 27.0574 19.6093L25.3334 17.8853L23.6094 19.6093C23.3579 19.8522 23.0211 19.9866 22.6715 19.9836C22.3219 19.9805 21.9875 19.8403 21.7403 19.5931C21.4931 19.3459 21.3528 19.0115 21.3498 18.6619C21.3468 18.3123 21.4811 17.9755 21.724 17.724L23.448 16L21.724 14.276C21.4741 14.026 21.3336 13.6869 21.3336 13.3333C21.3336 12.9798 21.4741 12.6407 21.724 12.3907V12.3907Z" fill="black"/>
</svg>
