<svg width="30" height="30" viewBox="0 0 30 30" fill="none" xmlns="http://www.w3.org/2000/svg">
<path d="M4.1125 24.1125L8.3625 19.875C6.99127 18.1281 6.24723 15.9708 6.25 13.75C6.25 11.7722 6.83649 9.83879 7.9353 8.1943C9.03411 6.54981 10.5959 5.26809 12.4232 4.51121C14.2504 3.75433 16.2611 3.5563 18.2009 3.94215C20.1407 4.328 21.9225 5.28041 23.3211 6.67894C24.7196 8.07746 25.672 9.85929 26.0578 11.7991C26.4437 13.7389 26.2457 15.7496 25.4888 17.5768C24.7319 19.4041 23.4502 20.9659 21.8057 22.0647C20.1612 23.1635 18.2278 23.75 16.25 23.75C14.0292 23.7528 11.8719 23.0087 10.125 21.6375L5.88749 25.8875C5.77129 26.0047 5.63304 26.0977 5.48072 26.1611C5.32839 26.2246 5.16501 26.2573 5 26.2573C4.83498 26.2573 4.6716 26.2246 4.51927 26.1611C4.36695 26.0977 4.2287 26.0047 4.1125 25.8875C3.99534 25.7713 3.90234 25.633 3.83888 25.4807C3.77542 25.3284 3.74275 25.165 3.74275 25C3.74275 24.835 3.77542 24.6716 3.83888 24.5193C3.90234 24.367 3.99534 24.2287 4.1125 24.1125V24.1125ZM23.75 13.75C23.75 12.2666 23.3101 10.8166 22.486 9.58323C21.6619 8.34986 20.4906 7.38857 19.1201 6.82091C17.7497 6.25325 16.2417 6.10473 14.7868 6.39411C13.332 6.6835 11.9956 7.39781 10.9467 8.4467C9.8978 9.4956 9.18349 10.832 8.8941 12.2868C8.60472 13.7417 8.75324 15.2497 9.3209 16.6201C9.88856 17.9906 10.8498 19.1619 12.0832 19.986C13.3166 20.8101 14.7666 21.25 16.25 21.25C18.2391 21.25 20.1468 20.4598 21.5533 19.0533C22.9598 17.6468 23.75 15.7391 23.75 13.75Z" fill="#909FB1"/>
</svg>
